<?xml version="1.0" encoding="utf-8"?>
<!-- Generator: Adobe Illustrator 22.1.0, SVG Export Plug-In . SVG Version: 6.00 Build 0)  -->
<svg version="1.1" id="Layer_1" xmlns="http://www.w3.org/2000/svg" xmlns:xlink="http://www.w3.org/1999/xlink" x="0px" y="0px"
	 viewBox="0 0 114 93" style="enable-background:new 0 0 114 93;" xml:space="preserve">
<style type="text/css">
	.st0{opacity:0.15;fill:#686868;enable-background:new    ;}
	.st1{fill:#EA5D4C;}
</style>
<g>
	<ellipse class="st0" cx="57" cy="69.2" rx="57" ry="6.5"/>
	<g>
		<path class="st1" d="M28,19.5c0.4,0.5,0.8,1.1,1.3,1.5c0.4,0.4,1,0.9,1.5,0.9c3.8,0,7.7,0.2,11.4-0.8c1.8-0.4,3.5-1.3,5.1-2.1
			c2.7-1.4,5.4-2.2,8.4-1.4c0.9,0.3,1.7,0.6,2.5,1.1c2.4,1.7,5.1,1.9,8,1.5c4.2-0.6,8.4-1.4,12.7-1.3c2.8,0.1,5.7,0.2,8.4,1.1
			c4.6,1.5,7.8,4.7,10.2,8.9c2.8,4.8,2.9,9.7,1.7,14.9c-0.7,2.8-1.3,5.6-1.8,8.4c-0.5,2.4,0.2,4.6,1.3,6.8c0.2,0.4,0.4,0.8,0.7,1.2
			c1.2,1.7,1.4,3.5,0.8,5.5c-0.3,1.1-0.7,2.1-1,3.2c-1,0-2.1,0.1-3.1,0.1c-0.9,0-1.9,0-2.9,0c0.4-0.6,0.7-1.1,1-1.7
			c0.6-1.1,0.4-1.5-0.7-2.1s-2.2-1.1-3.3-1.7c1.3-3.5,0.3-6.6-1-9.7c-0.2-0.6-0.8-0.9-1.4-0.6c-0.6,0.3-0.7,0.8-0.4,1.4
			c0.8,2,1.5,4,1.4,6.2c0,1-0.3,1.9-1.3,2.4c-0.4,0.2-0.7,0.8-0.9,1.3c-0.4,1.1-0.6,2.1-0.8,3.2c-0.3,1.2-0.4,1.3-1.6,1.3
			c-3.1,0-6.2,0-9.4-0.1c-0.4,0-0.7,0-1,0c0.9-2.1,1.9-4.1,2.8-6.1c0.5-1.1,0.4-1.4-0.7-1.9c-2.3-1.3-3.4-3.2-3.5-5.8
			c0-1.4-0.4-1.7-1.8-2.2c-1.3-0.5-2.6-1.1-3.7-1.6c0.9-2.1,1.7-3.9,2.3-5.8c0.6-1.7,0.6-3.5,0.1-5.3c-0.2-0.7-0.5-1.2-1.2-1
			s-0.9,0.7-0.7,1.4c0.7,3.1-0.2,6-1.9,8.5c-1.5,2.2-2.6,4.6-3.5,7.1c-1.1,3-2.1,6-3.1,9.1c-0.3,1.1-0.3,2.4-0.4,3.6
			c-4.8,0-9.5,0-14.6,0c0.5-0.6,0.8-1.2,1.3-1.7c0.6-0.5,1.2-1,1.9-1.3c0.8-0.4,1.2-1,1-1.9c-0.6-3.4-1-6.7-1.7-10.1
			c-0.5-2.5-1.4-5-2.2-7.5c-0.1-0.2-0.1-0.4-0.2-0.7c0.4,0.2,0.7,0.2,0.9,0.4c2.2,0.9,4.5,1.5,6.9,1.1c0.2,0,0.4-0.1,0.6-0.1
			c0.5-0.2,0.8-0.5,0.7-1.1S52.6,45,52,45.1c-3.7,0.6-6.8-0.8-9.8-2.7c-1.6-1.1-3.3-1.7-5.2-2.1c-2.6-0.6-5.1-1.5-7.7-2.4
			c-2.1-0.8-4.4-1-6.6-1.4c-1.6-0.3-3.3-0.4-4.9-0.5c-1-0.1-1.8-0.5-2.4-1.2c-0.6-0.7-1.2-1.5-1.7-2.3c-0.6-0.9-0.6-1.1,0.5-1.6
			c1.2-0.5,2.3-0.9,3.5-1.3c0.9-0.3,1.5-0.7,1.8-1.6c0.4-1.5,1.5-2.2,2.8-2.7c0.8-0.3,1.5-0.6,2.2-0.9c0.8-0.3,1.3-0.8,1.5-1.6
			c0.4-1.1,0.8-2.2,1.2-3.3C27.7,19.5,27.8,19.5,28,19.5z M30.8,29.1c0.2-0.2,0.6-0.6,0.7-1c0.1-0.6-0.3-1-0.9-1s-1,0.3-1,0.9
			C29.5,28.8,29.9,29,30.8,29.1z"/>
		<path class="st1" d="M23.6,66.8c0.3-2.2,1.9-3.7,4.1-3.9c1-0.1,1.3-0.6,1.5-1.4c1.7-6.5,3.4-12.9,5.2-19.4c0-0.1,0.1-0.3,0.2-0.6
			c1.8,0.5,3.6,0.9,5.3,1.6c0.7,0.3,1.4,1.2,1.7,1.9c0.7,1.6,1.2,3.3,1.8,5c0.1,0.3,0,0.6-0.1,0.9c-2.4,5.1-4.8,10.2-7.2,15.4
			c-0.1,0.3-0.5,0.6-0.8,0.6c-3.8,0-7.7,0-11.5,0C23.8,66.9,23.7,66.9,23.6,66.8z"/>
	</g>
	<ellipse class="st0" cx="57" cy="69.2" rx="57" ry="6.5"/>
	<g>
		<path class="st1" d="M28,19.5c0.4,0.5,0.8,1.1,1.3,1.5c0.4,0.4,1,0.9,1.5,0.9c3.8,0,7.7,0.2,11.4-0.8c1.8-0.4,3.5-1.3,5.1-2.1
			c2.7-1.4,5.4-2.2,8.4-1.4c0.9,0.3,1.7,0.6,2.5,1.1c2.4,1.7,5.1,1.9,8,1.5c4.2-0.6,8.4-1.4,12.7-1.3c2.8,0.1,5.7,0.2,8.4,1.1
			c4.6,1.5,7.8,4.7,10.2,8.9c2.8,4.8,2.9,9.7,1.7,14.9c-0.7,2.8-1.3,5.6-1.8,8.4c-0.5,2.4,0.2,4.6,1.3,6.8c0.2,0.4,0.4,0.8,0.7,1.2
			c1.2,1.7,1.4,3.5,0.8,5.5c-0.3,1.1-0.7,2.1-1,3.2c-1,0-2.1,0.1-3.1,0.1c-0.9,0-1.9,0-2.9,0c0.4-0.6,0.7-1.1,1-1.7
			c0.6-1.1,0.4-1.5-0.7-2.1s-2.2-1.1-3.3-1.7c1.3-3.5,0.3-6.6-1-9.7c-0.2-0.6-0.8-0.9-1.4-0.6c-0.6,0.3-0.7,0.8-0.4,1.4
			c0.8,2,1.5,4,1.4,6.2c0,1-0.3,1.9-1.3,2.4c-0.4,0.2-0.7,0.8-0.9,1.3c-0.4,1.1-0.6,2.1-0.8,3.2c-0.3,1.2-0.4,1.3-1.6,1.3
			c-3.1,0-6.2,0-9.4-0.1c-0.4,0-0.7,0-1,0c0.9-2.1,1.9-4.1,2.8-6.1c0.5-1.1,0.4-1.4-0.7-1.9c-2.3-1.3-3.4-3.2-3.5-5.8
			c0-1.4-0.4-1.7-1.8-2.2c-1.3-0.5-2.6-1.1-3.7-1.6c0.9-2.1,1.7-3.9,2.3-5.8c0.6-1.7,0.6-3.5,0.1-5.3c-0.2-0.7-0.5-1.2-1.2-1
			s-0.9,0.7-0.7,1.4c0.7,3.1-0.2,6-1.9,8.5c-1.5,2.2-2.6,4.6-3.5,7.1c-1.1,3-2.1,6-3.1,9.1c-0.3,1.1-0.3,2.4-0.4,3.6
			c-4.8,0-9.5,0-14.6,0c0.5-0.6,0.8-1.2,1.3-1.7c0.6-0.5,1.2-1,1.9-1.3c0.8-0.4,1.2-1,1-1.9c-0.6-3.4-1-6.7-1.7-10.1
			c-0.5-2.5-1.4-5-2.2-7.5c-0.1-0.2-0.1-0.4-0.2-0.7c0.4,0.2,0.7,0.2,0.9,0.4c2.2,0.9,4.5,1.5,6.9,1.1c0.2,0,0.4-0.1,0.6-0.1
			c0.5-0.2,0.8-0.5,0.7-1.1S52.6,45,52,45.1c-3.7,0.6-6.8-0.8-9.8-2.7c-1.6-1.1-3.3-1.7-5.2-2.1c-2.6-0.6-5.1-1.5-7.7-2.4
			c-2.1-0.8-4.4-1-6.6-1.4c-1.6-0.3-3.3-0.4-4.9-0.5c-1-0.1-1.8-0.5-2.4-1.2c-0.6-0.7-1.2-1.5-1.7-2.3c-0.6-0.9-0.6-1.1,0.5-1.6
			c1.2-0.5,2.3-0.9,3.5-1.3c0.9-0.3,1.5-0.7,1.8-1.6c0.4-1.5,1.5-2.2,2.8-2.7c0.8-0.3,1.5-0.6,2.2-0.9c0.8-0.3,1.3-0.8,1.5-1.6
			c0.4-1.1,0.8-2.2,1.2-3.3C27.7,19.5,27.8,19.5,28,19.5z M30.8,29.1c0.2-0.2,0.6-0.6,0.7-1c0.1-0.6-0.3-1-0.9-1s-1,0.3-1,0.9
			C29.5,28.8,29.9,29,30.8,29.1z"/>
		<path class="st1" d="M23.6,66.8c0.3-2.2,1.9-3.7,4.1-3.9c1-0.1,1.3-0.6,1.5-1.4c1.7-6.5,3.4-12.9,5.2-19.4c0-0.1,0.1-0.3,0.2-0.6
			c1.8,0.5,3.6,0.9,5.3,1.6c0.7,0.3,1.4,1.2,1.7,1.9c0.7,1.6,1.2,3.3,1.8,5c0.1,0.3,0,0.6-0.1,0.9c-2.4,5.1-4.8,10.2-7.2,15.4
			c-0.1,0.3-0.5,0.6-0.8,0.6c-3.8,0-7.7,0-11.5,0C23.8,66.9,23.7,66.9,23.6,66.8z"/>
	</g>
</g>
</svg>
