<?xml version="1.0" encoding="utf-8"?>
<!-- Generator: Adobe Illustrator 22.1.0, SVG Export Plug-In . SVG Version: 6.00 Build 0)  -->
<svg version="1.1" id="Layer_1" xmlns="http://www.w3.org/2000/svg" xmlns:xlink="http://www.w3.org/1999/xlink" x="0px" y="0px"
	 viewBox="0 0 114 93" style="enable-background:new 0 0 114 93;" xml:space="preserve">
<style type="text/css">
	.st0{opacity:0.15;fill:#686868;enable-background:new    ;}
	.st1{fill:#EA5D4C;}
</style>
<g>
	<ellipse class="st0" cx="57" cy="83.2" rx="57" ry="6.5"/>
	<g>
		<path class="st1" d="M70.5,49.5c1-0.2,2-0.6,3-0.6c2.9-0.1,5.8-0.1,8.7,0c1,0,2,0.4,3.3,0.7c2-2,4.3-4.3,6.7-6.5
			c1.2-1.2,2.4-1.2,3.6-0.2c1.1,1,1.1,2.4,0,3.6c-2.8,2.8-5.7,5.6-8.5,8.4c-0.6,0.6-1.4,1.2-1.5,1.9c-0.1,1.6-0.4,3.2,0.5,4.8
			c1.4,2.4,2.7,4.9,4,7.3c0,0.1,0,0.1,0.1,0.5c-2.1,0.4-4.3,0-6.5,0.3c0,0.4-0.1,0.9-0.1,1.3c0,3.7,0,7.3,0,11
			c0,1.2-0.6,2.1-1.7,2.5c-1,0.4-2,0.1-2.6-0.8c-0.4-0.6-0.6-1.3-0.6-2c-0.1-3.6,0-7.1,0-10.7c0-0.4,0-0.8,0-1.3c-0.7,0-1.3,0-2.1,0
			c0,0.4,0,0.8,0,1.2c0,3.7,0,7.3,0,11c0,1.2-0.5,2.1-1.6,2.5c-1,0.4-1.9,0.2-2.5-0.6c-0.4-0.6-0.7-1.4-0.7-2.2
			c-0.1-3.6,0-7.1,0-10.7c0-0.4,0-0.8,0-1.4c-1.9,0-3.6,0-5.3,0c-1.3,0-1.4-0.2-0.8-1.4c1.3-2.3,2.7-4.5,3.7-7
			c0.6-1.3,0.5-3,0.4-4.5c0-0.6-0.7-1.2-1.2-1.7c-2.7-2.8-5.5-5.5-8.3-8.3c-0.4-0.4-0.8-0.9-1-1.5c-0.4-1,0.2-2.2,1.1-2.8
			c0.9-0.6,2.2-0.4,3.1,0.4c1.7,1.6,3.4,3.2,5,4.9c0.7,0.7,1.3,1.4,1.9,2.1C70.4,49.8,70.4,49.8,70.5,49.5z"/>
		<path class="st1" d="M28.8,49.4c1-0.2,2.1-0.6,3.1-0.6c2.9-0.1,5.8-0.1,8.7,0c0.9,0,1.8,0.4,2.8,0.6c0,0.2,0.1,0.3,0.1,0.5
			c0.6-0.6,1.1-1.3,1.7-1.9c1.7-1.7,3.5-3.5,5.2-5.1c1.1-1,2.4-1.1,3.3-0.2c0.9,0.8,1.1,2.5,0.2,3.6c-0.3,0.4-0.6,0.7-1,1
			c-2.8,2.8-5.7,5.7-8.5,8.5c-0.6,0.6-0.8,1.1-0.8,1.9c0,7.8,0,15.7,0,23.5c0,0.4,0,0.8,0,1.3c-0.2,1.4-1.3,2.3-2.7,2.2
			c-1.3,0-2.2-1-2.2-2.4c0-3.2,0-6.4,0-9.6c0-1.9-1.1-2.9-2.9-2.9c-1.6,0-2.6,1-2.6,2.6c0,3.1,0,6.2,0,9.3c0,0.6-0.1,1.2-0.3,1.7
			c-0.4,1-1.7,1.6-2.8,1.3c-1.1-0.2-1.8-1.1-1.9-2.3c-0.1-1.4,0-2.8,0-4.1c0-6.9,0-13.8,0-20.6c0-0.8-0.2-1.3-0.8-1.9
			c-2.8-2.7-5.5-5.4-8.2-8.2c-0.2-0.2-0.4-0.4-0.6-0.6c-1.3-1.4-1.5-2.9-0.4-3.9s2.6-0.9,3.9,0.4c1.9,1.8,3.7,3.6,5.6,5.5
			c0.4,0.4,0.6,0.9,1,1.3C28.7,49.8,28.7,49.5,28.8,49.4z"/>
		<path class="st1" d="M36.1,46.9c-3.3,0-6-2.6-6-5.8c0-3.3,2.6-6,5.9-6c3.3,0,6,2.6,6,5.9C42,44.3,39.4,46.9,36.1,46.9z"/>
		<path class="st1" d="M83.7,41.1c0,3.2-2.6,5.8-5.9,5.8s-5.9-2.6-5.9-5.9c0-3.3,2.6-6,5.9-6C81.1,35.1,83.7,37.8,83.7,41.1z"/>
		<path class="st1" d="M78.1,16.6c0,1.1-0.9,2-2,2s-1.9-0.9-1.9-2c0-1.1,0.9-2,1.9-2C77.2,14.5,78.1,15.4,78.1,16.6z"/>
		<path class="st1" d="M32.3,12.9c0,0.9-0.8,1.6-1.6,1.6c-0.9,0-1.6-0.8-1.6-1.6c0-0.9,0.7-1.6,1.6-1.6C31.6,11.3,32.3,12,32.3,12.9
			z"/>
		<path class="st1" d="M42,17.4c0.5-0.3,1-0.9,1.4-0.9s1.1,0.7,1.1,1.1s-0.6,1.1-1.1,1.1c-0.4,0-0.9-0.5-1.4-0.9
			C42,17.7,42,17.6,42,17.4z"/>
		<path class="st1" d="M64.2,24.5c-0.5,0.3-1,0.9-1.4,0.8c-0.4,0-1-0.7-1-1.1s0.7-1.1,1.1-1.1c0.5,0,0.9,0.6,1.4,0.9
			C64.2,24.2,64.2,24.4,64.2,24.5z"/>
		<path class="st1" d="M87.9,8.3c-0.5,0.3-0.9,0.9-1.4,0.9c-0.4,0-1.1-0.7-1.1-1.1c0-0.4,0.6-1.1,1-1.1s1,0.5,1.4,0.8
			C87.9,7.9,87.9,8.1,87.9,8.3z"/>
		<path class="st1" d="M59.6,16c-0.5,0.3-0.9,0.9-1.4,0.9c-0.4,0-1.1-0.7-1.1-1.1c0-0.4,0.6-1.1,1-1.2c0.5,0,1,0.5,1.5,0.8
			C59.6,15.6,59.6,15.8,59.6,16z"/>
		<path class="st1" d="M89.1,28.7c-0.4,0.3-0.9,0.7-1.3,0.8c-0.7,0.1-1.3-0.4-1.1-1.2c0.1-0.4,0.7-1,1.1-1.1c0.4,0,0.9,0.6,1.4,0.9
			C89.1,28.3,89.1,28.5,89.1,28.7z"/>
		<path class="st1" d="M41.1,3.3c0.3,0.4,0.8,0.8,0.9,1.3c0.1,0.7-0.4,1.2-1.2,1.2s-1.3-0.5-1.1-1.2c0.1-0.5,0.6-0.9,0.9-1.3
			C40.7,3.3,40.9,3.3,41.1,3.3z"/>
		<path class="st1" d="M26.5,29.7c-0.3-0.5-0.9-0.9-0.9-1.4c0-0.4,0.6-1,1.1-1.1c0.7-0.2,1.3,0.4,1.2,1.1c-0.1,0.5-0.5,0.9-0.8,1.3
			C26.9,29.7,26.7,29.7,26.5,29.7z"/>
	</g>
	<ellipse class="st0" cx="57" cy="83.2" rx="57" ry="6.5"/>
	<g>
		<path class="st1" d="M70.5,49.5c1-0.2,2-0.6,3-0.6c2.9-0.1,5.8-0.1,8.7,0c1,0,2,0.4,3.3,0.7c2-2,4.3-4.3,6.7-6.5
			c1.2-1.2,2.4-1.2,3.6-0.2c1.1,1,1.1,2.4,0,3.6c-2.8,2.8-5.7,5.6-8.5,8.4c-0.6,0.6-1.4,1.2-1.5,1.9c-0.1,1.6-0.4,3.2,0.5,4.8
			c1.4,2.4,2.7,4.9,4,7.3c0,0.1,0,0.1,0.1,0.5c-2.1,0.4-4.3,0-6.5,0.3c0,0.4-0.1,0.9-0.1,1.3c0,3.7,0,7.3,0,11
			c0,1.2-0.6,2.1-1.7,2.5c-1,0.4-2,0.1-2.6-0.8c-0.4-0.6-0.6-1.3-0.6-2c-0.1-3.6,0-7.1,0-10.7c0-0.4,0-0.8,0-1.3c-0.7,0-1.3,0-2.1,0
			c0,0.4,0,0.8,0,1.2c0,3.7,0,7.3,0,11c0,1.2-0.5,2.1-1.6,2.5c-1,0.4-1.9,0.2-2.5-0.6c-0.4-0.6-0.7-1.4-0.7-2.2
			c-0.1-3.6,0-7.1,0-10.7c0-0.4,0-0.8,0-1.4c-1.9,0-3.6,0-5.3,0c-1.3,0-1.4-0.2-0.8-1.4c1.3-2.3,2.7-4.5,3.7-7
			c0.6-1.3,0.5-3,0.4-4.5c0-0.6-0.7-1.2-1.2-1.7c-2.7-2.8-5.5-5.5-8.3-8.3c-0.4-0.4-0.8-0.9-1-1.5c-0.4-1,0.2-2.2,1.1-2.8
			c0.9-0.6,2.2-0.4,3.1,0.4c1.7,1.6,3.4,3.2,5,4.9c0.7,0.7,1.3,1.4,1.9,2.1C70.4,49.8,70.4,49.8,70.5,49.5z"/>
		<path class="st1" d="M28.8,49.4c1-0.2,2.1-0.6,3.1-0.6c2.9-0.1,5.8-0.1,8.7,0c0.9,0,1.8,0.4,2.8,0.6c0,0.2,0.1,0.3,0.1,0.5
			c0.6-0.6,1.1-1.3,1.7-1.9c1.7-1.7,3.5-3.5,5.2-5.1c1.1-1,2.4-1.1,3.3-0.2c0.9,0.8,1.1,2.5,0.2,3.6c-0.3,0.4-0.6,0.7-1,1
			c-2.8,2.8-5.7,5.7-8.5,8.5c-0.6,0.6-0.8,1.1-0.8,1.9c0,7.8,0,15.7,0,23.5c0,0.4,0,0.8,0,1.3c-0.2,1.4-1.3,2.3-2.7,2.2
			c-1.3,0-2.2-1-2.2-2.4c0-3.2,0-6.4,0-9.6c0-1.9-1.1-2.9-2.9-2.9c-1.6,0-2.6,1-2.6,2.6c0,3.1,0,6.2,0,9.3c0,0.6-0.1,1.2-0.3,1.7
			c-0.4,1-1.7,1.6-2.8,1.3c-1.1-0.2-1.8-1.1-1.9-2.3c-0.1-1.4,0-2.8,0-4.1c0-6.9,0-13.8,0-20.6c0-0.8-0.2-1.3-0.8-1.9
			c-2.8-2.7-5.5-5.4-8.2-8.2c-0.2-0.2-0.4-0.4-0.6-0.6c-1.3-1.4-1.5-2.9-0.4-3.9s2.6-0.9,3.9,0.4c1.9,1.8,3.7,3.6,5.6,5.5
			c0.4,0.4,0.6,0.9,1,1.3C28.7,49.8,28.7,49.5,28.8,49.4z"/>
		<path class="st1" d="M36.1,46.9c-3.3,0-6-2.6-6-5.8c0-3.3,2.6-6,5.9-6c3.3,0,6,2.6,6,5.9C42,44.3,39.4,46.9,36.1,46.9z"/>
		<path class="st1" d="M83.7,41.1c0,3.2-2.6,5.8-5.9,5.8s-5.9-2.6-5.9-5.9c0-3.3,2.6-6,5.9-6C81.1,35.1,83.7,37.8,83.7,41.1z"/>
		<path class="st1" d="M78.1,16.6c0,1.1-0.9,2-2,2s-1.9-0.9-1.9-2c0-1.1,0.9-2,1.9-2C77.2,14.5,78.1,15.4,78.1,16.6z"/>
		<path class="st1" d="M32.3,12.9c0,0.9-0.8,1.6-1.6,1.6c-0.9,0-1.6-0.8-1.6-1.6c0-0.9,0.7-1.6,1.6-1.6C31.6,11.3,32.3,12,32.3,12.9
			z"/>
		<path class="st1" d="M42,17.4c0.5-0.3,1-0.9,1.4-0.9s1.1,0.7,1.1,1.1s-0.6,1.1-1.1,1.1c-0.4,0-0.9-0.5-1.4-0.9
			C42,17.7,42,17.6,42,17.4z"/>
		<path class="st1" d="M64.2,24.5c-0.5,0.3-1,0.9-1.4,0.8c-0.4,0-1-0.7-1-1.1s0.7-1.1,1.1-1.1c0.5,0,0.9,0.6,1.4,0.9
			C64.2,24.2,64.2,24.4,64.2,24.5z"/>
		<path class="st1" d="M87.9,8.3c-0.5,0.3-0.9,0.9-1.4,0.9c-0.4,0-1.1-0.7-1.1-1.1c0-0.4,0.6-1.1,1-1.1s1,0.5,1.4,0.8
			C87.9,7.9,87.9,8.1,87.9,8.3z"/>
		<path class="st1" d="M59.6,16c-0.5,0.3-0.9,0.9-1.4,0.9c-0.4,0-1.1-0.7-1.1-1.1c0-0.4,0.6-1.1,1-1.2c0.5,0,1,0.5,1.5,0.8
			C59.6,15.6,59.6,15.8,59.6,16z"/>
		<path class="st1" d="M89.1,28.7c-0.4,0.3-0.9,0.7-1.3,0.8c-0.7,0.1-1.3-0.4-1.1-1.2c0.1-0.4,0.7-1,1.1-1.1c0.4,0,0.9,0.6,1.4,0.9
			C89.1,28.3,89.1,28.5,89.1,28.7z"/>
		<path class="st1" d="M41.1,3.3c0.3,0.4,0.8,0.8,0.9,1.3c0.1,0.7-0.4,1.2-1.2,1.2s-1.3-0.5-1.1-1.2c0.1-0.5,0.6-0.9,0.9-1.3
			C40.7,3.3,40.9,3.3,41.1,3.3z"/>
		<path class="st1" d="M26.5,29.7c-0.3-0.5-0.9-0.9-0.9-1.4c0-0.4,0.6-1,1.1-1.1c0.7-0.2,1.3,0.4,1.2,1.1c-0.1,0.5-0.5,0.9-0.8,1.3
			C26.9,29.7,26.7,29.7,26.5,29.7z"/>
	</g>
</g>
</svg>
