<?xml version="1.0" encoding="utf-8"?>
<!-- Generator: Adobe Illustrator 22.1.0, SVG Export Plug-In . SVG Version: 6.00 Build 0)  -->
<svg version="1.1" id="Layer_1" xmlns="http://www.w3.org/2000/svg" xmlns:xlink="http://www.w3.org/1999/xlink" x="0px" y="0px"
	 viewBox="0 0 142 116" style="enable-background:new 0 0 142 116;" xml:space="preserve">
<style type="text/css">
	.st0{opacity:0.15;fill:#686868;enable-background:new    ;}
	.st1{fill:#EA5D4C;}
</style>
<g>
	<ellipse class="st0" cx="71" cy="88.4" rx="57" ry="6.5"/>
	<g>
		<path class="st1" d="M94.3,68.3c1.3,3.1-1.7,6.1-5.7,5.8c0.6,3.2,0.3,5.9-3.6,6.4c-0.2,3.9-1.1,4.7-5.6,4.5
			c-1.1,2.8-2.3,3.4-5.7,2.7c-1.2-0.2-2.3-0.6-3.3-0.9c-0.2-1.8-0.3-3.5-0.7-5c-0.6-2.3-2-4.1-4.5-4.8c-0.3-0.1-0.6-0.4-0.8-0.7
			c-1.6-2.6-4-3.6-7-3.1c-0.4,0.1-0.9-0.1-1.2-0.4c-1.6-1.4-3.4-1.9-5.5-1.5c-0.4,0.1-0.9,0-1.2-0.2c-3.4-2.4-6.1-2.2-8.8,0.5
			c-3.5-1.8-7-3.5-10.5-5.3c4-7.4,8-15,11.9-22.3c2.7,0.9,5.2,1.7,7.8,2.5c-0.4,1.1-1,2.5-1.5,3.9c-0.5,1.3-1.1,2.6-1.6,3.9
			c-1.2,3.4,0.8,6.4,4.4,6.8c4,0.5,6.7-1.7,9.2-4.4c0.7-0.8,1.3-1.7,2-2.6c1.1-1.5,2-1.7,3.5-0.8c8.6,4.9,17.2,9.8,25.7,14.8
			C92.5,68.6,93.3,69,94.3,68.3z"/>
		<path class="st1" d="M103.2,32.1c3.5,8.4,7.1,16.8,10.7,25.4c-3,0.6-5.7,1.2-8.4,1.7c-1.4,0.3-2.8,0.5-4.2,0.8
			c-0.6,0.1-1.1,0.5-1.7,0.8c-2,1.3-4,2.6-6,3.9c-0.6,0.4-1.2,0.3-1.8-0.1c-8.8-5-17.5-10-26.3-15.1c-0.9-0.5-1.5-0.6-2.4,0
			c-1.6,1-3,2.1-4.1,3.7c-1.2,1.5-2.7,2.8-4.2,4c-1.3,1-2.9,1.1-4.5,0.4c-0.9-0.4-1.3-1.1-1-2c0.2-0.8,0.5-1.7,0.9-2.5
			c0.7-1.7,1.5-3.3,2.1-5.1c0.5-1.4,1.3-2.5,2.6-3.2c3-1.8,5.9-3.7,9-5.4c0.9-0.5,2.1-0.5,3.1-0.5c5.2,0.2,10.5,0.5,15.7,0.7
			c0.8,0,1.6-0.1,2.3-0.4c5.7-2.2,11.4-4.5,17-6.8C102.2,32.4,102.6,32.3,103.2,32.1z"/>
		<path class="st1" d="M39.6,42.3c-4,7.7-8.1,15.3-12.1,23c-3.3-1.2-6.5-2.3-9.7-3.5c-4.8-1.7-9.6-3.4-14.4-5.1
			c-3.3-1.2-4.3-3.9-2.6-7c3.1-5.6,6.3-11.3,9.4-16.9c1.6-2.9,3.8-3.5,6.7-2c7.2,3.6,14.4,7.3,21.6,10.9
			C38.9,41.8,39.2,42,39.6,42.3z"/>
		<path class="st1" d="M106,31.3c5.7-2.7,11.2-5.3,16.7-7.9c1.4-0.6,2.7-1.3,4.1-1.9c1.8-0.9,2.8-0.5,3.7,1.4
			c2.2,5.1,4.5,10.3,6.7,15.4c1.5,3.6,3.1,7.2,4.6,10.8c0.8,1.8,0.1,3.3-1.7,3.6c-7.3,1.4-14.7,2.8-22.1,4.2c-0.2,0-0.4,0.1-0.6,0.1
			C113.5,48.4,109.8,39.9,106,31.3z"/>
		<path class="st1" d="M62.8,79.4c3.1-0.4,5.1,1.8,4.6,4.9c0,0.3-0.1,0.6-0.2,1c-0.3,2.7-2.2,4-4.7,2.8c-1.8-0.9-3.5-1.7-5.6-1.9
			c-1.6-0.1-2.4-1.5-3-2.8c-1.1,0-2.1,0.1-3,0c-0.8-0.1-1.9-0.2-2.4-0.8c-0.9-1-1.9-1.4-3.1-1.9c-2.5-1-3.8-4.8-2.7-7.2
			c0.7-1.6,1.5-2,3.1-1.9c1.7,0.2,2.5,0.9,2.9,2.8c1.4-0.4,2.7-0.9,4.1-1c1.7-0.1,2.3,1.4,2.7,2.5c1.7-0.2,3.3-0.6,4.8-0.4
			C62,76.1,62.3,77.8,62.8,79.4z"/>
	</g>
	<ellipse class="st0" cx="71" cy="88.4" rx="57" ry="6.5"/>
	<g>
		<path class="st1" d="M94.3,68.3c1.3,3.1-1.7,6.1-5.7,5.8c0.6,3.2,0.3,5.9-3.6,6.4c-0.2,3.9-1.1,4.7-5.6,4.5
			c-1.1,2.8-2.3,3.4-5.7,2.7c-1.2-0.2-2.3-0.6-3.3-0.9c-0.2-1.8-0.3-3.5-0.7-5c-0.6-2.3-2-4.1-4.5-4.8c-0.3-0.1-0.6-0.4-0.8-0.7
			c-1.6-2.6-4-3.6-7-3.1c-0.4,0.1-0.9-0.1-1.2-0.4c-1.6-1.4-3.4-1.9-5.5-1.5c-0.4,0.1-0.9,0-1.2-0.2c-3.4-2.4-6.1-2.2-8.8,0.5
			c-3.5-1.8-7-3.5-10.5-5.3c4-7.4,8-15,11.9-22.3c2.7,0.9,5.2,1.7,7.8,2.5c-0.4,1.1-1,2.5-1.5,3.9c-0.5,1.3-1.1,2.6-1.6,3.9
			c-1.2,3.4,0.8,6.4,4.4,6.8c4,0.5,6.7-1.7,9.2-4.4c0.7-0.8,1.3-1.7,2-2.6c1.1-1.5,2-1.7,3.5-0.8c8.6,4.9,17.2,9.8,25.7,14.8
			C92.5,68.6,93.3,69,94.3,68.3z"/>
		<path class="st1" d="M103.2,32.1c3.5,8.4,7.1,16.8,10.7,25.4c-3,0.6-5.7,1.2-8.4,1.7c-1.4,0.3-2.8,0.5-4.2,0.8
			c-0.6,0.1-1.1,0.5-1.7,0.8c-2,1.3-4,2.6-6,3.9c-0.6,0.4-1.2,0.3-1.8-0.1c-8.8-5-17.5-10-26.3-15.1c-0.9-0.5-1.5-0.6-2.4,0
			c-1.6,1-3,2.1-4.1,3.7c-1.2,1.5-2.7,2.8-4.2,4c-1.3,1-2.9,1.1-4.5,0.4c-0.9-0.4-1.3-1.1-1-2c0.2-0.8,0.5-1.7,0.9-2.5
			c0.7-1.7,1.5-3.3,2.1-5.1c0.5-1.4,1.3-2.5,2.6-3.2c3-1.8,5.9-3.7,9-5.4c0.9-0.5,2.1-0.5,3.1-0.5c5.2,0.2,10.5,0.5,15.7,0.7
			c0.8,0,1.6-0.1,2.3-0.4c5.7-2.2,11.4-4.5,17-6.8C102.2,32.4,102.6,32.3,103.2,32.1z"/>
		<path class="st1" d="M39.6,42.3c-4,7.7-8.1,15.3-12.1,23c-3.3-1.2-6.5-2.3-9.7-3.5c-4.8-1.7-9.6-3.4-14.4-5.1
			c-3.3-1.2-4.3-3.9-2.6-7c3.1-5.6,6.3-11.3,9.4-16.9c1.6-2.9,3.8-3.5,6.7-2c7.2,3.6,14.4,7.3,21.6,10.9
			C38.9,41.8,39.2,42,39.6,42.3z"/>
		<path class="st1" d="M106,31.3c5.7-2.7,11.2-5.3,16.7-7.9c1.4-0.6,2.7-1.3,4.1-1.9c1.8-0.9,2.8-0.5,3.7,1.4
			c2.2,5.1,4.5,10.3,6.7,15.4c1.5,3.6,3.1,7.2,4.6,10.8c0.8,1.8,0.1,3.3-1.7,3.6c-7.3,1.4-14.7,2.8-22.1,4.2c-0.2,0-0.4,0.1-0.6,0.1
			C113.5,48.4,109.8,39.9,106,31.3z"/>
		<path class="st1" d="M62.8,79.4c3.1-0.4,5.1,1.8,4.6,4.9c0,0.3-0.1,0.6-0.2,1c-0.3,2.7-2.2,4-4.7,2.8c-1.8-0.9-3.5-1.7-5.6-1.9
			c-1.6-0.1-2.4-1.5-3-2.8c-1.1,0-2.1,0.1-3,0c-0.8-0.1-1.9-0.2-2.4-0.8c-0.9-1-1.9-1.4-3.1-1.9c-2.5-1-3.8-4.8-2.7-7.2
			c0.7-1.6,1.5-2,3.1-1.9c1.7,0.2,2.5,0.9,2.9,2.8c1.4-0.4,2.7-0.9,4.1-1c1.7-0.1,2.3,1.4,2.7,2.5c1.7-0.2,3.3-0.6,4.8-0.4
			C62,76.1,62.3,77.8,62.8,79.4z"/>
	</g>
</g>
</svg>
