<?xml version="1.0" encoding="utf-8"?>
<!-- Generator: Adobe Illustrator 22.1.0, SVG Export Plug-In . SVG Version: 6.00 Build 0)  -->
<svg version="1.1" id="Layer_1" xmlns="http://www.w3.org/2000/svg" xmlns:xlink="http://www.w3.org/1999/xlink" x="0px" y="0px"
	 viewBox="0 0 114 93" style="enable-background:new 0 0 114 93;" xml:space="preserve">
<style type="text/css">
	.st0{opacity:0.15;fill:#686868;enable-background:new    ;}
	.st1{fill:#FFFFFF;}
	.st2{fill:#EA5D4C;}
</style>
<g>
	<ellipse class="st0" cx="57" cy="74.1" rx="57" ry="6.5"/>
	<g>
		<path class="st1" d="M28.8,44.1c0,9.9,0,19.8,0,29.7c6.3,0,12.6,0,19,0c0-7.4,0-14.7,0-21.9c6.2,0,12.3,0,18.5,0
			c0,7.3,0,14.6,0,21.9c6.3,0,12.6,0,18.9,0c0-9.9,0-19.8,0-29.5c0.8,0,1.6,0.1,2.3,0c3.6-0.7,5.2-3.9,4-7.4
			c-2.9-8-6.2-15.9-9.3-23.9c-0.2-0.5-0.5-0.6-1-0.6c-16.2,0-32.3,0-48.5,0c-0.6,0-0.9,0.2-1.2,0.8c-3,7.9-6.1,15.8-9.1,23.8
			c-0.7,1.8-0.5,3.6,0.6,5.2C24.5,44.2,26.4,44.8,28.8,44.1z M56.9,69.7c2.2-2.2,4.2-4.4,5.1-7.4c0.5-1.6,0.3-3.2-0.8-4.6
			c-1.4-1.9-4-2.5-6.2-1.5c-2.3,1.1-3.5,3.5-3,6C52.7,65.3,54.7,67.5,56.9,69.7z"/>
		<path class="st2" d="M28.8,44.1c-2.4,0.6-4.3,0-5.7-1.9c-1.1-1.6-1.3-3.5-0.6-5.2c3-7.9,6.1-15.8,9.1-23.8
			c0.2-0.6,0.5-0.8,1.1-0.8c16.2,0,32.3,0,48.5,0c0.5,0,0.9,0.1,1.1,0.6c3.1,8,6.3,15.9,9.3,23.9c1.3,3.5-0.4,6.7-4,7.4
			c-0.7,0.1-1.5,0-2.3,0c0,9.7,0,19.6,0,29.5c-6.3,0-12.6,0-18.9,0c0-7.3,0-14.6,0-21.9c-6.2,0-12.3,0-18.5,0c0,7.3,0,14.6,0,21.9
			c-6.4,0-12.6,0-19,0C28.8,64,28.8,54.1,28.8,44.1z M53.1,16.2c0,0.2-0.1,0.3-0.1,0.4c-0.3,7.6-0.7,15.2-1,22.8
			c0,0.4,0.1,0.8,0.2,1.2c0.6,2.3,3,4,5.3,3.7c2.6-0.3,4.5-2.5,4.4-5.1c-0.3-6.7-0.6-13.4-0.9-20.1c0-1-0.1-2-0.2-3
			C58.2,16.2,55.7,16.2,53.1,16.2z M68.1,16.1c0,0.3,0,0.5,0,0.7c0.5,2.9,1.1,5.8,1.6,8.7c0.7,4.8,2,9.4,2.2,14.3
			c0.1,2,1.2,3.4,3.1,4.2c1.8,0.7,3.5,0.4,5-0.8c1.6-1.3,2.4-4.1,1.7-6.3c-2-6.7-4.1-13.3-6.1-20c-0.2-0.6-0.5-0.8-1.1-0.8
			c-0.8,0.1-1.5,0-2.3,0C70.8,16.1,69.5,16.1,68.1,16.1z M45.8,16.1c-2.2,0-4.3,0-6.3,0c-0.7,0-0.9,0.3-1.1,0.9
			c-1.9,6.3-3.8,12.5-5.7,18.8c-0.4,1.3-0.5,2.5-0.5,3.8c0.1,2.6,2.2,4.7,4.7,4.8c2.7,0.1,5.1-1.9,5.1-4.6c0-2.8,0.6-5.4,1.1-8.1
			C43.9,26.6,44.9,21.4,45.8,16.1z"/>
		<path class="st2" d="M56.9,69.7c-2.2-2.2-4.3-4.4-4.9-7.5c-0.5-2.5,0.7-4.9,3-6c2.2-1,4.9-0.4,6.2,1.5c1,1.4,1.2,3,0.8,4.6
			C61.1,65.3,59.2,67.5,56.9,69.7z M54.9,60.7c0,1.2,0.8,2.2,1.9,2.2c1.2,0,2.2-0.9,2.2-2.1c0-1.3-0.9-2.2-2.1-2.2
			C55.8,58.6,54.9,59.5,54.9,60.7z"/>
	</g>
	<ellipse class="st0" cx="57" cy="74.1" rx="57" ry="6.5"/>
	<g>
		<path class="st1" d="M28.8,44.1c0,9.9,0,19.8,0,29.7c6.3,0,12.6,0,19,0c0-7.4,0-14.7,0-21.9c6.2,0,12.3,0,18.5,0
			c0,7.3,0,14.6,0,21.9c6.3,0,12.6,0,18.9,0c0-9.9,0-19.8,0-29.5c0.8,0,1.6,0.1,2.3,0c3.6-0.7,5.2-3.9,4-7.4
			c-2.9-8-6.2-15.9-9.3-23.9c-0.2-0.5-0.5-0.6-1-0.6c-16.2,0-32.3,0-48.5,0c-0.6,0-0.9,0.2-1.2,0.8c-3,7.9-6.1,15.8-9.1,23.8
			c-0.7,1.8-0.5,3.6,0.6,5.2C24.5,44.2,26.4,44.8,28.8,44.1z M56.9,69.7c2.2-2.2,4.2-4.4,5.1-7.4c0.5-1.6,0.3-3.2-0.8-4.6
			c-1.4-1.9-4-2.5-6.2-1.5c-2.3,1.1-3.5,3.5-3,6C52.7,65.3,54.7,67.5,56.9,69.7z"/>
		<path class="st2" d="M28.8,44.1c-2.4,0.6-4.3,0-5.7-1.9c-1.1-1.6-1.3-3.5-0.6-5.2c3-7.9,6.1-15.8,9.1-23.8
			c0.2-0.6,0.5-0.8,1.1-0.8c16.2,0,32.3,0,48.5,0c0.5,0,0.9,0.1,1.1,0.6c3.1,8,6.3,15.9,9.3,23.9c1.3,3.5-0.4,6.7-4,7.4
			c-0.7,0.1-1.5,0-2.3,0c0,9.7,0,19.6,0,29.5c-6.3,0-12.6,0-18.9,0c0-7.3,0-14.6,0-21.9c-6.2,0-12.3,0-18.5,0c0,7.3,0,14.6,0,21.9
			c-6.4,0-12.6,0-19,0C28.8,64,28.8,54.1,28.8,44.1z M53.1,16.2c0,0.2-0.1,0.3-0.1,0.4c-0.3,7.6-0.7,15.2-1,22.8
			c0,0.4,0.1,0.8,0.2,1.2c0.6,2.3,3,4,5.3,3.7c2.6-0.3,4.5-2.5,4.4-5.1c-0.3-6.7-0.6-13.4-0.9-20.1c0-1-0.1-2-0.2-3
			C58.2,16.2,55.7,16.2,53.1,16.2z M68.1,16.1c0,0.3,0,0.5,0,0.7c0.5,2.9,1.1,5.8,1.6,8.7c0.7,4.8,2,9.4,2.2,14.3
			c0.1,2,1.2,3.4,3.1,4.2c1.8,0.7,3.5,0.4,5-0.8c1.6-1.3,2.4-4.1,1.7-6.3c-2-6.7-4.1-13.3-6.1-20c-0.2-0.6-0.5-0.8-1.1-0.8
			c-0.8,0.1-1.5,0-2.3,0C70.8,16.1,69.5,16.1,68.1,16.1z M45.8,16.1c-2.2,0-4.3,0-6.3,0c-0.7,0-0.9,0.3-1.1,0.9
			c-1.9,6.3-3.8,12.5-5.7,18.8c-0.4,1.3-0.5,2.5-0.5,3.8c0.1,2.6,2.2,4.7,4.7,4.8c2.7,0.1,5.1-1.9,5.1-4.6c0-2.8,0.6-5.4,1.1-8.1
			C43.9,26.6,44.9,21.4,45.8,16.1z"/>
		<path class="st2" d="M56.9,69.7c-2.2-2.2-4.3-4.4-4.9-7.5c-0.5-2.5,0.7-4.9,3-6c2.2-1,4.9-0.4,6.2,1.5c1,1.4,1.2,3,0.8,4.6
			C61.1,65.3,59.2,67.5,56.9,69.7z M54.9,60.7c0,1.2,0.8,2.2,1.9,2.2c1.2,0,2.2-0.9,2.2-2.1c0-1.3-0.9-2.2-2.1-2.2
			C55.8,58.6,54.9,59.5,54.9,60.7z"/>
	</g>
</g>
</svg>
