<?xml version="1.0" encoding="utf-8"?>
<!-- Generator: Adobe Illustrator 22.1.0, SVG Export Plug-In . SVG Version: 6.00 Build 0)  -->
<svg version="1.1" id="Layer_1" xmlns="http://www.w3.org/2000/svg" xmlns:xlink="http://www.w3.org/1999/xlink" x="0px" y="0px"
	 viewBox="0 0 114 93" style="enable-background:new 0 0 114 93;" xml:space="preserve">
<style type="text/css">
	.st0{opacity:0.15;fill:#686868;enable-background:new    ;}
	.st1{fill:#EA5D4C;}
</style>
<g>
	<ellipse class="st0" cx="57" cy="85.7" rx="57" ry="6.5"/>
	<g>
		<path class="st1" d="M31,41.8c-4.8,0.4-9.2-0.8-13-4c-2.7-2.3-4.5-5.2-5.3-8.6c-1.7-6.8,0.9-13.9,6.6-17.9
			c5.5-3.9,14.4-4.6,21,1.3c0.2-0.5,0.5-0.9,0.7-1.3C46.4,1.8,58.2-2,68,3c7,3.6,10.9,9.4,11.3,17.3c0.6,10.2-6.4,19.1-16.4,21.1
			c-1.4,0.3-2.8,0.4-4.2,0.4c-2.9,0.1-5.8,0-8.7,0c-0.4,0-0.7,0-0.8,0.5c-1.2,4.2-4.8,6.9-9,7c-4.2,0-7.8-2.8-9-7
			C31.1,42.2,31.1,42.1,31,41.8z"/>
		<path class="st1" d="M83,56.9c-0.4,1.6-1.1,3-2.2,4.2c-2.6,2.8-5.7,3.8-9.4,2.8c-3.4-0.9-5.6-3.2-6.6-6.5
			c-0.1-0.5-0.3-0.6-0.8-0.6c-2.9,0-5.8,0-8.7,0c-3.1,0-6-0.7-8.8-1.9c-1.5-0.7-1.6-2.3-0.3-3.3c2.3-1.7,4.7-3.5,7-5.3
			c0.7-0.5,1.3-0.7,2.2-0.7c3.1,0,6.2,0.1,9.1-0.7c9.6-2.7,15.6-8.9,18.1-18.6c0.1-0.5,0.2-1,0.3-1.6c0.2-1,0.9-1.5,1.9-1.5
			c8.5-0.1,15.9,6.3,16.9,14.8c1.1,9.3-5.7,17.8-15.1,18.6C85.4,56.8,84.2,56.8,83,56.9z"/>
		<path class="st1" d="M30.9,64.3c-4.1,0-7.5-3.3-7.5-7.5c0-4.1,3.4-7.4,7.5-7.4s7.4,3.4,7.5,7.4C38.4,60.9,35,64.2,30.9,64.3z"/>
		<path class="st1" d="M75.7,71.8c0-4,3.3-7.4,7.4-7.4s7.5,3.3,7.5,7.5c0.1,4-3.4,7.5-7.5,7.5C79,79.2,75.7,75.9,75.7,71.8z"/>
		<path class="st1" d="M90.6,81c0-3,2.4-5.6,5.5-5.6s5.6,2.4,5.6,5.6c0,3-2.4,5.6-5.5,5.6C93.2,86.8,90.7,84.2,90.6,81z"/>
		<path class="st1" d="M17.9,71.8c-3.1,0.1-5.6-2.3-5.7-5.4c-0.1-3.1,2.3-5.6,5.5-5.7c3-0.1,5.6,2.4,5.7,5.4
			C23.5,69.2,21.1,71.7,17.9,71.8z"/>
	</g>
	<ellipse class="st0" cx="57" cy="85.7" rx="57" ry="6.5"/>
	<g>
		<path class="st1" d="M31,41.8c-4.8,0.4-9.2-0.8-13-4c-2.7-2.3-4.5-5.2-5.3-8.6c-1.7-6.8,0.9-13.9,6.6-17.9
			c5.5-3.9,14.4-4.6,21,1.3c0.2-0.5,0.5-0.9,0.7-1.3C46.4,1.8,58.2-2,68,3c7,3.6,10.9,9.4,11.3,17.3c0.6,10.2-6.4,19.1-16.4,21.1
			c-1.4,0.3-2.8,0.4-4.2,0.4c-2.9,0.1-5.8,0-8.7,0c-0.4,0-0.7,0-0.8,0.5c-1.2,4.2-4.8,6.9-9,7c-4.2,0-7.8-2.8-9-7
			C31.1,42.2,31.1,42.1,31,41.8z"/>
		<path class="st1" d="M83,56.9c-0.4,1.6-1.1,3-2.2,4.2c-2.6,2.8-5.7,3.8-9.4,2.8c-3.4-0.9-5.6-3.2-6.6-6.5
			c-0.1-0.5-0.3-0.6-0.8-0.6c-2.9,0-5.8,0-8.7,0c-3.1,0-6-0.7-8.8-1.9c-1.5-0.7-1.6-2.3-0.3-3.3c2.3-1.7,4.7-3.5,7-5.3
			c0.7-0.5,1.3-0.7,2.2-0.7c3.1,0,6.2,0.1,9.1-0.7c9.6-2.7,15.6-8.9,18.1-18.6c0.1-0.5,0.2-1,0.3-1.6c0.2-1,0.9-1.5,1.9-1.5
			c8.5-0.1,15.9,6.3,16.9,14.8c1.1,9.3-5.7,17.8-15.1,18.6C85.4,56.8,84.2,56.8,83,56.9z"/>
		<path class="st1" d="M30.9,64.3c-4.1,0-7.5-3.3-7.5-7.5c0-4.1,3.4-7.4,7.5-7.4s7.4,3.4,7.5,7.4C38.4,60.9,35,64.2,30.9,64.3z"/>
		<path class="st1" d="M75.7,71.8c0-4,3.3-7.4,7.4-7.4s7.5,3.3,7.5,7.5c0.1,4-3.4,7.5-7.5,7.5C79,79.2,75.7,75.9,75.7,71.8z"/>
		<path class="st1" d="M90.6,81c0-3,2.4-5.6,5.5-5.6s5.6,2.4,5.6,5.6c0,3-2.4,5.6-5.5,5.6C93.2,86.8,90.7,84.2,90.6,81z"/>
		<path class="st1" d="M17.9,71.8c-3.1,0.1-5.6-2.3-5.7-5.4c-0.1-3.1,2.3-5.6,5.5-5.7c3-0.1,5.6,2.4,5.7,5.4
			C23.5,69.2,21.1,71.7,17.9,71.8z"/>
	</g>
</g>
</svg>
