<?xml version="1.0" encoding="utf-8"?>
<!-- Generator: Adobe Illustrator 22.1.0, SVG Export Plug-In . SVG Version: 6.00 Build 0)  -->
<svg version="1.1" id="Layer_1" xmlns="http://www.w3.org/2000/svg" xmlns:xlink="http://www.w3.org/1999/xlink" x="0px" y="0px"
	 viewBox="0 0 114 93" style="enable-background:new 0 0 114 93;" xml:space="preserve">
<style type="text/css">
	.st0{opacity:0.15;fill:#686868;enable-background:new    ;}
	.st1{fill:#EA5D4C;}
</style>
<g>
	<ellipse class="st0" cx="57" cy="84.3" rx="57" ry="6.5"/>
	<g>
		<path class="st1" d="M57,65.9c-9.6,0-17.4-8-17-17.6c0.1-2.5,1-4.7,2-7c2.8-6.1,6.4-11.6,10.2-17.1c1.1-1.6,2.2-3.1,3.4-4.7
			c0.9-1.2,2-1.2,2.8,0c4.8,6.6,9.4,13.3,13,20.7c1.2,2.5,2.3,5,2.5,7.7c0.4,6.5-2.3,11.5-7.6,15.1C63.2,65.2,60.4,65.9,57,65.9z
			 M57.4,59.2c5.3-0.2,9.8-4.9,9.8-10.1c0-1-0.5-1.6-1.3-1.6s-1.3,0.6-1.5,1.5c-0.2,1.1-0.3,2.2-0.8,3.2c-1.3,2.7-3.7,4-6.6,4.2
			c-1.2,0.1-1.8,1.1-1.3,2C56.2,59.2,56.8,59.2,57.4,59.2z"/>
		<path class="st1" d="M70.7,8.6c-0.6-2.2-1.2-4.2-1.9-6.4c0.9,0.5,1.7,0.9,2.4,1.3c1.1,0.6,2.2,1.2,3.3,1.8
			c0.3,0.2,0.6,0.4,0.7,0.7c0.8,2.5,1.5,5,2.2,7.6c-2.6,0.8-5.1,1.5-7.6,2.2c-0.2,0.1-0.4,0-0.6-0.1c-1.9-1.1-3.9-2.1-6-3.3
			c1.8-0.5,3.5-1,5.4-1.6C64.4,9.4,60.3,8.7,56,8.7C38.7,8.9,24,20.9,20.6,38c-1.8,8.8-0.3,17.2,4,25c0.2,0.4,0.4,0.7,0.6,1.1
			c0.4,0.8,0.2,1.5-0.5,1.9c-0.7,0.4-1.5,0.3-1.9-0.5c-0.9-1.6-1.9-3.3-2.6-5C13.4,44.4,18,25.8,31.6,14.8
			c8.5-6.9,18.2-9.7,29.1-8.6C64.1,6.5,67.3,7.4,70.7,8.6z"/>
		<path class="st1" d="M43.3,80.2c0.6,2.2,1.2,4.2,1.9,6.4c-1.2-0.6-2.1-1.1-3.1-1.7c-1.1-0.6-2.4-1-3.1-1.9
			c-0.7-0.9-0.8-2.3-1.1-3.5c-0.4-1.4-0.8-2.8-1.3-4.3c0.6-0.2,1.1-0.4,1.7-0.5c1.9-0.5,3.7-1.1,5.6-1.6c0.3-0.1,0.7-0.1,0.9,0
			c1.7,0.9,3.4,1.8,5.1,2.8c0.2,0.1,0.4,0.2,0.8,0.5c-1,0.3-1.8,0.5-2.6,0.8c-0.8,0.2-1.6,0.5-2.5,0.8c0,0.1,0,0.2,0,0.3
			c1.6,0.4,3.2,0.9,4.8,1.2c19.6,3.9,38.6-8.5,42.8-28c1.9-9.1,0.5-17.7-4-25.8c-0.1-0.2-0.2-0.3-0.3-0.5c-0.6-1-0.5-1.8,0.3-2.3
			s1.5-0.2,2.1,0.8c1.6,2.7,2.9,5.5,3.8,8.5c6.2,20.1-4.4,41.2-24.4,48.5c-8.7,3.1-17.5,3.1-26.2,0C44.2,80.6,43.9,80.5,43.3,80.2z"
			/>
	</g>
	<ellipse class="st0" cx="57" cy="84.3" rx="57" ry="6.5"/>
	<g>
		<path class="st1" d="M57,65.9c-9.6,0-17.4-8-17-17.6c0.1-2.5,1-4.7,2-7c2.8-6.1,6.4-11.6,10.2-17.1c1.1-1.6,2.2-3.1,3.4-4.7
			c0.9-1.2,2-1.2,2.8,0c4.8,6.6,9.4,13.3,13,20.7c1.2,2.5,2.3,5,2.5,7.7c0.4,6.5-2.3,11.5-7.6,15.1C63.2,65.2,60.4,65.9,57,65.9z
			 M57.4,59.2c5.3-0.2,9.8-4.9,9.8-10.1c0-1-0.5-1.6-1.3-1.6s-1.3,0.6-1.5,1.5c-0.2,1.1-0.3,2.2-0.8,3.2c-1.3,2.7-3.7,4-6.6,4.2
			c-1.2,0.1-1.8,1.1-1.3,2C56.2,59.2,56.8,59.2,57.4,59.2z"/>
		<path class="st1" d="M70.7,8.6c-0.6-2.2-1.2-4.2-1.9-6.4c0.9,0.5,1.7,0.9,2.4,1.3c1.1,0.6,2.2,1.2,3.3,1.8
			c0.3,0.2,0.6,0.4,0.7,0.7c0.8,2.5,1.5,5,2.2,7.6c-2.6,0.8-5.1,1.5-7.6,2.2c-0.2,0.1-0.4,0-0.6-0.1c-1.9-1.1-3.9-2.1-6-3.3
			c1.8-0.5,3.5-1,5.4-1.6C64.4,9.4,60.3,8.7,56,8.7C38.7,8.9,24,20.9,20.6,38c-1.8,8.8-0.3,17.2,4,25c0.2,0.4,0.4,0.7,0.6,1.1
			c0.4,0.8,0.2,1.5-0.5,1.9c-0.7,0.4-1.5,0.3-1.9-0.5c-0.9-1.6-1.9-3.3-2.6-5C13.4,44.4,18,25.8,31.6,14.8
			c8.5-6.9,18.2-9.7,29.1-8.6C64.1,6.5,67.3,7.4,70.7,8.6z"/>
		<path class="st1" d="M43.3,80.2c0.6,2.2,1.2,4.2,1.9,6.4c-1.2-0.6-2.1-1.1-3.1-1.7c-1.1-0.6-2.4-1-3.1-1.9
			c-0.7-0.9-0.8-2.3-1.1-3.5c-0.4-1.4-0.8-2.8-1.3-4.3c0.6-0.2,1.1-0.4,1.7-0.5c1.9-0.5,3.7-1.1,5.6-1.6c0.3-0.1,0.7-0.1,0.9,0
			c1.7,0.9,3.4,1.8,5.1,2.8c0.2,0.1,0.4,0.2,0.8,0.5c-1,0.3-1.8,0.5-2.6,0.8c-0.8,0.2-1.6,0.5-2.5,0.8c0,0.1,0,0.2,0,0.3
			c1.6,0.4,3.2,0.9,4.8,1.2c19.6,3.9,38.6-8.5,42.8-28c1.9-9.1,0.5-17.7-4-25.8c-0.1-0.2-0.2-0.3-0.3-0.5c-0.6-1-0.5-1.8,0.3-2.3
			s1.5-0.2,2.1,0.8c1.6,2.7,2.9,5.5,3.8,8.5c6.2,20.1-4.4,41.2-24.4,48.5c-8.7,3.1-17.5,3.1-26.2,0C44.2,80.6,43.9,80.5,43.3,80.2z"
			/>
	</g>
</g>
</svg>
