<?xml version="1.0" encoding="utf-8"?>
<!-- Generator: Adobe Illustrator 22.1.0, SVG Export Plug-In . SVG Version: 6.00 Build 0)  -->
<svg version="1.1" id="Layer_1" xmlns="http://www.w3.org/2000/svg" xmlns:xlink="http://www.w3.org/1999/xlink" x="0px" y="0px"
	 viewBox="0 0 114 93" style="enable-background:new 0 0 114 93;" xml:space="preserve">
<style type="text/css">
	.st0{opacity:0.15;fill:#686868;enable-background:new    ;}
	.st1{fill:#EA5D4C;}
	.st2{fill:#FFFFFF;}
</style>
<g>
	<ellipse class="st0" cx="57" cy="79" rx="57" ry="6.5"/>
	<g>
		<g>
			<path class="st1" d="M87.8,26.4c-0.2,7.2-0.7,13.6-1.9,19.8c-0.9,4.8-2.1,9.5-4.5,13.9c-2.4,4.6-6,8.3-10.1,11.4
				c-4.3,3.3-8.9,5.8-13.9,7.7c-0.2,0.1-0.5,0.1-0.7,0c-8.1-3.2-15.3-7.7-21-14.4c-3.3-4-5.2-8.6-6.5-13.6
				c-1.5-5.6-2.3-11.4-2.6-17.2c-0.2-4.1-0.3-8.3-0.4-12.4c0-0.5,0.2-0.8,0.6-1c9.9-4.3,19.7-8.7,29.6-13.1c0.4-0.2,0.8-0.2,1.2,0
				c9.9,4.4,19.8,8.7,29.7,13.1c0.4,0.2,0.6,0.4,0.6,0.9C87.8,23.5,87.8,25.3,87.8,26.4z"/>
		</g>
		<g>
			<g id="A.T_Logo_6_">
				<g>
					<g>
						<polygon class="st2" points="56.8,45.2 53.9,46.5 55.2,43.6 51.9,40.3 45.3,55.1 60.1,48.5 						"/>
						<polygon class="st2" points="53.9,38.4 57.2,41.6 60.1,40.3 58.8,43.2 62.1,46.5 68.7,31.7 						"/>
					</g>
				</g>
			</g>
		</g>
	</g>
	<ellipse class="st0" cx="57" cy="79" rx="57" ry="6.5"/>
	<g>
		<g>
			<path class="st1" d="M87.8,26.4c-0.2,7.2-0.7,13.6-1.9,19.8c-0.9,4.8-2.1,9.5-4.5,13.9c-2.4,4.6-6,8.3-10.1,11.4
				c-4.3,3.3-8.9,5.8-13.9,7.7c-0.2,0.1-0.5,0.1-0.7,0c-8.1-3.2-15.3-7.7-21-14.4c-3.3-4-5.2-8.6-6.5-13.6
				c-1.5-5.6-2.3-11.4-2.6-17.2c-0.2-4.1-0.3-8.3-0.4-12.4c0-0.5,0.2-0.8,0.6-1c9.9-4.3,19.7-8.7,29.6-13.1c0.4-0.2,0.8-0.2,1.2,0
				c9.9,4.4,19.8,8.7,29.7,13.1c0.4,0.2,0.6,0.4,0.6,0.9C87.8,23.5,87.8,25.3,87.8,26.4z"/>
		</g>
		<g>
			<g id="A.T_Logo_7_">
				<g>
					<g>
						<polygon class="st2" points="56.8,45.2 53.9,46.5 55.2,43.6 51.9,40.3 45.3,55.1 60.1,48.5 						"/>
						<polygon class="st2" points="53.9,38.4 57.2,41.6 60.1,40.3 58.8,43.2 62.1,46.5 68.7,31.7 						"/>
					</g>
				</g>
			</g>
		</g>
	</g>
</g>
</svg>
