<?xml version="1.0" encoding="utf-8"?>
<!-- Generator: Adobe Illustrator 22.1.0, SVG Export Plug-In . SVG Version: 6.00 Build 0)  -->
<svg version="1.1" id="Layer_1" xmlns="http://www.w3.org/2000/svg" xmlns:xlink="http://www.w3.org/1999/xlink" x="0px" y="0px"
	 viewBox="0 0 114 93" style="enable-background:new 0 0 114 93;" xml:space="preserve">
<style type="text/css">
	.st0{opacity:0.15;fill:#686868;enable-background:new    ;}
	.st1{fill:#EA5D4C;}
</style>
<g>
	<ellipse class="st0" cx="57" cy="75.4" rx="57" ry="6.5"/>
	<g>
		<path class="st1" d="M45.4,39.7c1.7-9.5,3.4-19.1,5-28.6c0.1,0,0.1,0,0.2,0c1.6,8.6,3.3,17.3,4.9,25.9c0.1,0,0.1,0,0.2,0
			c0.5-2.3,1-4.6,1.5-6.9h0.1c1.1,4.8,2.2,9.7,3.4,14.6c-0.9,0.2-1.8,0.3-2.7,0.5c0,2,0,4.1,0,6.3c4,0.2,8.1,0.4,12.3,0.6
			c0-1.2,0-2.3,0-3.5c0-0.1-0.4-0.3-0.7-0.4c-0.9-0.2-1.8-0.4-2.7-0.6c1.3-5.9,2.5-11.7,3.8-17.4c0.1,0,0.1,0,0.2,0
			c1,4.5,2.1,9,3.1,13.5h0.1c0.7-3.2,1.4-6.4,2.1-9.6c0.1,0,0.1,0,0.2,0c1.1,4.6,2.1,9.3,3.2,14.1c-1,0.2-1.8,0.3-2.8,0.4
			c0,1.3,0,2.7,0,4.1c1.6,0.2,3.2,0.3,4.8,0.5c3.2,0.4,6.4,0.7,9.5,1.1c0.3,0,0.5,0.3,0.7,0.5c-0.3,0.1-0.6,0.3-0.8,0.3
			c-5.6,0-11.3-0.1-16.9-0.1c-2.3,0-4.7,0.3-7,0.4c-0.4,0-0.9,0.2-1.3,0.4c0,0.1,0,0.2-0.1,0.3c0.5,0.2,1.1,0.6,1.6,0.7
			c2.7,0.6,5.3,1.2,8,1.7c5.4,1,10.7,1.8,16.1,2.9c2.1,0.4,4.1,1.2,6.1,1.9c0.7,0.2,1.5,0.6,1.4,1.5c0,0.8-0.8,1.2-1.5,1.3
			c-2.7,0.7-5.3,1.6-8.1,2c-5.3,0.8-10.7,1.4-16.1,2c-4.3,0.4-8.5,0.7-12.8,1c-0.3,0-0.7,0.1-1,0.3c0.2,0.1,0.5,0.2,0.7,0.3
			c3.4,0.7,6.8,1.4,10.2,2.1c1.6,0.3,3.2,0.7,4.8,1.1c0.3,0.1,0.5,0.2,0.8,0.5c-0.3,0.1-0.6,0.2-0.9,0.2c-4.4-0.1-8.9-0.2-13.3-0.4
			c-4.2-0.2-8.4-0.6-12.5-1c-4.8-0.5-9.6-1.3-14.4-2c-1.6-0.2-3.2-0.6-4.8-0.9c-0.4-0.1-0.7-0.3-1.1-0.5c0-0.1,0-0.2,0-0.3
			c0.7-0.2,1.3-0.5,2-0.6c3.1-0.4,6.2-0.8,9.4-1.1c5.8-0.6,11.6-1.2,17.4-1.9c1.7-0.2,3.3-0.5,5-0.9c0.5-0.1,1-0.4,1.4-0.6
			c0-0.1,0-0.2,0-0.3c-0.6-0.2-1.1-0.6-1.7-0.7c-3.7-0.6-7.3-1.2-11-1.5c-6.2-0.6-12.5-1-18.7-1.6c-4.2-0.4-8.5-1-12.7-1.6
			c-1.3-0.2-2.5-0.7-3.7-1.1c-0.3-0.1-0.6-0.3-0.9-0.5c-0.6-0.5-0.7-1-0.1-1.5c0.6-0.4,1.2-0.8,1.9-1c2.9-0.7,5.8-1.6,8.7-2
			c4.4-0.7,8.9-1.1,13.3-1.7c0.3,0,0.6-0.1,0.9-0.1c0-0.8,0-1.6,0-2.4c-1.7-0.3-3.4-0.6-5.2-0.9c1.9-9.1,3.9-18,5.8-26.9h0.1
			c1.4,6,2.8,12,4.1,18C45.2,39.7,45.3,39.7,45.4,39.7z M41.6,51.7c3-0.1,5.8-0.2,8.7-0.3c0-1.2,0-2.3,0-3.5
			c-0.9-0.2-1.8-0.3-2.6-0.5c-0.5-0.1-0.9-0.1-1.4,0.2c-0.7,0.5-1.6,0.8-2.4,1.1c-0.7,0.3-1.5,0.4-2.3,0.5
			C41.6,50.1,41.6,50.9,41.6,51.7z M56.7,51.4c0-1.4,0-2.8,0-4.1c-1.7,0.3-3.4,0.6-5.1,0.9c0,1.1,0,2.1,0,3.3
			C53.3,51.4,55,51.4,56.7,51.4z M75.6,48.1c-1.4,0.1-2.8,0.1-4.2,0.2c0,1.3,0,2.5,0,3.8c1.4,0.1,2.8,0.2,4.2,0.3
			C75.6,51.1,75.6,49.8,75.6,48.1z"/>
	</g>
	<ellipse class="st0" cx="57" cy="75.4" rx="57" ry="6.5"/>
	<g>
		<path class="st1" d="M45.4,39.7c1.7-9.5,3.4-19.1,5-28.6c0.1,0,0.1,0,0.2,0c1.6,8.6,3.3,17.3,4.9,25.9c0.1,0,0.1,0,0.2,0
			c0.5-2.3,1-4.6,1.5-6.9h0.1c1.1,4.8,2.2,9.7,3.4,14.6c-0.9,0.2-1.8,0.3-2.7,0.5c0,2,0,4.1,0,6.3c4,0.2,8.1,0.4,12.3,0.6
			c0-1.2,0-2.3,0-3.5c0-0.1-0.4-0.3-0.7-0.4c-0.9-0.2-1.8-0.4-2.7-0.6c1.3-5.9,2.5-11.7,3.8-17.4c0.1,0,0.1,0,0.2,0
			c1,4.5,2.1,9,3.1,13.5h0.1c0.7-3.2,1.4-6.4,2.1-9.6c0.1,0,0.1,0,0.2,0c1.1,4.6,2.1,9.3,3.2,14.1c-1,0.2-1.8,0.3-2.8,0.4
			c0,1.3,0,2.7,0,4.1c1.6,0.2,3.2,0.3,4.8,0.5c3.2,0.4,6.4,0.7,9.5,1.1c0.3,0,0.5,0.3,0.7,0.5c-0.3,0.1-0.6,0.3-0.8,0.3
			c-5.6,0-11.3-0.1-16.9-0.1c-2.3,0-4.7,0.3-7,0.4c-0.4,0-0.9,0.2-1.3,0.4c0,0.1,0,0.2-0.1,0.3c0.5,0.2,1.1,0.6,1.6,0.7
			c2.7,0.6,5.3,1.2,8,1.7c5.4,1,10.7,1.8,16.1,2.9c2.1,0.4,4.1,1.2,6.1,1.9c0.7,0.2,1.5,0.6,1.4,1.5c0,0.8-0.8,1.2-1.5,1.3
			c-2.7,0.7-5.3,1.6-8.1,2c-5.3,0.8-10.7,1.4-16.1,2c-4.3,0.4-8.5,0.7-12.8,1c-0.3,0-0.7,0.1-1,0.3c0.2,0.1,0.5,0.2,0.7,0.3
			c3.4,0.7,6.8,1.4,10.2,2.1c1.6,0.3,3.2,0.7,4.8,1.1c0.3,0.1,0.5,0.2,0.8,0.5c-0.3,0.1-0.6,0.2-0.9,0.2c-4.4-0.1-8.9-0.2-13.3-0.4
			c-4.2-0.2-8.4-0.6-12.5-1c-4.8-0.5-9.6-1.3-14.4-2c-1.6-0.2-3.2-0.6-4.8-0.9c-0.4-0.1-0.7-0.3-1.1-0.5c0-0.1,0-0.2,0-0.3
			c0.7-0.2,1.3-0.5,2-0.6c3.1-0.4,6.2-0.8,9.4-1.1c5.8-0.6,11.6-1.2,17.4-1.9c1.7-0.2,3.3-0.5,5-0.9c0.5-0.1,1-0.4,1.4-0.6
			c0-0.1,0-0.2,0-0.3c-0.6-0.2-1.1-0.6-1.7-0.7c-3.7-0.6-7.3-1.2-11-1.5c-6.2-0.6-12.5-1-18.7-1.6c-4.2-0.4-8.5-1-12.7-1.6
			c-1.3-0.2-2.5-0.7-3.7-1.1c-0.3-0.1-0.6-0.3-0.9-0.5c-0.6-0.5-0.7-1-0.1-1.5c0.6-0.4,1.2-0.8,1.9-1c2.9-0.7,5.8-1.6,8.7-2
			c4.4-0.7,8.9-1.1,13.3-1.7c0.3,0,0.6-0.1,0.9-0.1c0-0.8,0-1.6,0-2.4c-1.7-0.3-3.4-0.6-5.2-0.9c1.9-9.1,3.9-18,5.8-26.9h0.1
			c1.4,6,2.8,12,4.1,18C45.2,39.7,45.3,39.7,45.4,39.7z M41.6,51.7c3-0.1,5.8-0.2,8.7-0.3c0-1.2,0-2.3,0-3.5
			c-0.9-0.2-1.8-0.3-2.6-0.5c-0.5-0.1-0.9-0.1-1.4,0.2c-0.7,0.5-1.6,0.8-2.4,1.1c-0.7,0.3-1.5,0.4-2.3,0.5
			C41.6,50.1,41.6,50.9,41.6,51.7z M56.7,51.4c0-1.4,0-2.8,0-4.1c-1.7,0.3-3.4,0.6-5.1,0.9c0,1.1,0,2.1,0,3.3
			C53.3,51.4,55,51.4,56.7,51.4z M75.6,48.1c-1.4,0.1-2.8,0.1-4.2,0.2c0,1.3,0,2.5,0,3.8c1.4,0.1,2.8,0.2,4.2,0.3
			C75.6,51.1,75.6,49.8,75.6,48.1z"/>
	</g>
</g>
</svg>
